<svg xmlns="http://www.w3.org/2000/svg" viewBox="0 0 1024 1024" stroke-linecap="round" stroke-linejoin="round">
  <title>KESUNKA</title>
  <!-- 角丸で背景ごとクリップ（rx=230 ≒ 22.5%） -->
  <clipPath id="rc"><rect width="1024" height="1024" rx="230" ry="230"/></clipPath>
  <g clip-path="url(#rc)">
    <rect width="1024" height="1024" fill="#b8e994"/>
    <path fill="#b8733c" d="M1024,804.25v219.75h-334.59l16.25-133.41c3.14,4.61,7.14,6.63,15.37,8.12,15.25,2.75,40.16-2.68,55.58-5.81,18.29-3.72,36.51-7.99,54.19-14.03,34.56-11.81,76.47-36.41,96.49-67.83,1.44-2.26,2.81-4.53,4.11-6.79h92.6Z"/>
    <path fill="#231815" d="M931.4,804.25c-1.3,2.26-2.67,4.53-4.11,6.79-20.02,31.42-61.93,56.02-96.49,67.83-17.68,6.04-35.9,10.31-54.19,14.03-15.42,3.13-40.33,8.56-55.58,5.81-8.23-1.49-12.23-3.51-15.37-8.12l3.57-29.35-15.3-.91c-5.36-18.45-9.91-40.61-11.37-56.08h-182.75c-9.25-25.85-35.01-72.09-59.11-95.46-43.66,58.35-107.57,94.72-182.1,94.72-3.64,0-7.31-.08-11.01-.26-16.51-9.27-33.06-57.18-13.95-68.09,35.34-20.19,69.77-38.13,95.11-71.6,13.12-17.32,19.76-54.81,23.87-76.12,11.23-18,27.45-28.91,45.63-40.33,15.58,41.18,56.39,87.34,90.66,103.47,33.69,15.85,66.5,18.32,100.95,17.61,31.47-.64,56.8-9.59,84.55-24.44,57.35-30.67,87.9-72.81,112.47-132.19,7.32-17.68,11.82-41.2,10.46-62.04l.23-.02c23.76,5.1,53.31,22.01,74.61,33.49,15.15,8.16,39.57,19.58,51.13,32.61,12.45,14.03,31.04,116.6,31.73,154.08.94,51.31.1,93.25-23.64,134.57Z"/>
    <path fill="#231815" d="M858.73,239.52c1.37,48.97-3.1,101.26-26.22,151.08-11.6,24.98-23.12,32.09-37.53,43.17-25.34-22.64-50.11-50.38-69.34-85.01-53-1.39-99.5-12.68-126.12-64.4-33.67,51.87-91.63,80.45-153.15,64.55-15.48-4.01-15.77-7.19-27.17,1.4-5.35,4.03-9.21,13.13-15.15,18.07-18.97,15.75-43.65,8.19-65.69,10.81,1.01,15.18,17.31,27.56,9.84,43.04-36.09-4.52-65.88-18.43-81.98-52.74-6.39-13.64-12.47-31.42-13.79-46.52-.83-9.6,6.24-29.82-4.27-35.71-16.22-9.1-28.42,22.19-36.61-5.56-7.63-25.83,18.39-70.49,31.94-90.29,34.24-50.03,78.26-98.54,135.35-122.36,141.89-59.2,227.1-55.24,301.31-33.56,39.63,11.58,80.63,26.58,111.2,52.93,47.44,40.9,65.65,89.43,67.38,151.1Z"/>
    <path fill="#fcd78b" d="M398.25,547.11c-2.34-6.15-4.1-12.2-5.2-18.01-6.97-36.95-25.81-73.24-44.85-106.87,7.47-15.48-8.83-27.86-9.84-43.04,22.04-2.62,46.72,4.94,65.69-10.81,5.94-4.94,9.8-14.04,15.15-18.07,11.4-8.59,11.69-5.41,27.17-1.4,61.52,15.9,119.48-12.68,153.15-64.55,26.62,51.72,73.12,63.01,126.12,64.4,19.23,34.63,44,62.37,69.34,85.01,1.23,4.96,2,10.26,2.36,15.75,1.36,20.84-3.14,44.36-10.46,62.04-24.57,59.38-55.12,101.52-112.47,132.19-27.75,14.85-53.08,23.8-84.55,24.44-34.45.71-67.26-1.76-100.95-17.61-34.27-16.13-75.08-62.29-90.66-103.47Z"/>
    <path fill="#fff" d="M709.23,861.24l-3.57,29.35c-1.93-2.82-3.53-6.62-5.59-11.85-2.08-5.28-4.16-11.59-6.14-18.41l15.3.91Z"/>
    <path fill="#fff" d="M705.66,890.59l-16.25,133.41H76.42l60.77-196.68,556.74,33.01c1.98,6.82,4.06,13.13,6.14,18.41,2.06,5.23,3.66,9.03,5.59,11.85Z"/>
    <path fill="#b8733c" d="M693.93,860.33l-556.74-33.01-60.77,196.68H0v-219.75h682.56c1.46,15.47,6.01,37.63,11.37,56.08Z"/>
    <path fill="#fff" d="M405.05,442.24c-34.57,31.78-5.91,90.5,40.75,86.97,15.19-1.15,45.98-28.12,51.04-43.11-7.27-17.17-15.3-33.47-34.35-41.61-15.24-6.52-33.23-8.71-57.44-2.25Z"/>
    <path fill="#fff" d="M612.13,393.69c-32.19-1.87-55.54,20.96-53.53,52.89,1.67,26.42,20.59,49.58,47.86,52.19,42.87,4.1,77.31-43.05,78.63-85.33-14.49-17.92-42.94-21.14-72.96-19.75Z"/>
    <g fill="none" stroke="#a06c4d" stroke-width="19.88">
      <path d="M513.05,518.53c-10.47,13.2-20.16,33.56.96,49.81,8.59,6.61,25.82,5.34,39.66-1.26"/>
      <path d="M570.1,616.83c20.2,3.95,46.27,2.08,64.35-8.41,28.85-16.73,36.47-33.6,41.67-50.05"/>
    </g>
    <path fill="#5e3019" d="M392.17,464.04c26.3,0,58.29,15.95,62.2,44.81,2.37,17.47-9.64,19.85-23.95,18.36-16.64-1.73-29.82-9.29-38.96-23.53-5-7.8-10.15-32.3.72-39.63Z"/>
    <path fill="#5e3019" d="M561.6,429.36c30.62-11.24,84.18,12.54,77.29,51.06-6.65,37.22-78.95,14.85-86.01-14.95-3.25-13.7.99-30.63,8.72-36.11Z"/>
    <path fill="none" stroke="#727171" stroke-width="19.88" d="M788.47,650.58c13.18,89.64-37.24,154.18-96.44,169.1"/>
    <line fill="none" stroke="#4d9f37" stroke-width="36.85" stroke-linecap="butt" stroke-miterlimit="10" x1="165.6" y1="644.04" x2="251.77" y2="882.43"/>
    <path fill="#fcd78b" d="M151.72,737.85c21.46,2.55,40.11,18.33,52.86,34.87s27.69,37.79,24.29,58.62c-2.85,17.5-23.03,26.15-38.47,18-.96,19.72-16.36,30.55-35.67,31.44-18.03.83-36.96-5.23-49.57-18.51-13.89-14.64-13.33-30.18-12.45-48.79,1.1-23.2,6.71-49.4,25.29-65.12,10.69-9.04,22.28-11.88,33.71-10.52Z"/>
    <path fill="#fcd78b" d="M245.25,727.74c-12.66,3.69-22.3,14.57-28.37,29.46-5.96,14.64-7.55,32.88-.74,47.53,6.91,14.88,17.68,16.82,32.34,13.22,17.73-4.35,24.93-12.86,32.01-30.12,7.15-17.42,14.48-40.56-1.64-54.69-3-2.63-7.14-3.54-10.9-4.71-8.37-2.59-15.97-2.67-22.71-.7Z"/>
    <g fill="none" stroke="#231815" stroke-width="29.83">
      <path d="M540.87,414.05c34.37-28.98,77.24-27.74,120.22-27.74"/>
      <path d="M357.24,460.29c20.48-24.41,56.68-27.76,85.87-27.74"/>
    </g>
    <g fill="none" stroke="#a06c4d" stroke-width="19.88">
      <line x1="396.54" y1="860.96" x2="371.77" y2="1005.62"/>
      <line x1="434.19" y1="986.8" x2="554.41" y2="995.39"/>
      <line x1="443.11" y1="933.29" x2="545.17" y2="941.22"/>
      <line x1="169.09" y1="969.62" x2="288.1" y2="978.87"/>
      <line x1="187.48" y1="917.44" x2="300.43" y2="925.37"/>
    </g>
    <line fill="none" stroke="#727171" stroke-width="19.88" x1="593.17" y1="688.67" x2="627.19" y2="787.53"/>
    <path fill="#fcd78b" d="M724.42,896.7c-6.44,18.9-21.08,33.37-42.3,36.27-12.43,1.7-20.54-3.2-31.5-6.87-10.75,14.93-45.48,42.76-63.7,31.07-22.41-14.37,4.27-36.7,16.29-47.67-15.92,6.56-56.65,28.33-66.02,2.86-8.22-22.36,19.57-42.41,33.96-52.7-15.19,5.94-32.65,13.51-45.27,5.35-13.9-8.98-4.29-20.72,4.32-30,21.93-23.61,50.69-43.93,83.28-48.28,20.29-2.7,45.75-.76,63.6,9.69,16.43,9.61,30.41,34.2,37.43,51.74,6.46,16.15,12.52,37.61,9.91,48.55Z"/>
    <rect fill="#466fb6" x="846.35" y="884.11" width="88.18" height="80.26" transform="translate(2095.354 1366.1751) rotate(154.0752)"/>
    <rect fill="#fff" x="815.03" y="911.62" width="37.65" height="80.26" transform="translate(1999.9023 1443.1596) rotate(154.0752)"/>
    <circle fill="#f8b94f" cx="647.33" cy="694.84" r="18.5"/>
    <circle fill="#f8b94f" cx="667.92" cy="753.29" r="18.5"/>
  </g>
</svg>
